<?xml version="1.0" standalone="no"?>
<!DOCTYPE svg PUBLIC "-//W3C//DTD SVG 20010904//EN"
 "http://www.w3.org/TR/2001/REC-SVG-20010904/DTD/svg10.dtd">
<svg version="1.0" xmlns="http://www.w3.org/2000/svg"
 width="766.000000pt" height="766.000000pt" viewBox="0 0 766.000000 766.000000"
 preserveAspectRatio="xMidYMid meet">
<metadata>
Created by potrace 1.11, written by Peter Selinger 2001-2013
</metadata>
<g transform="translate(0.000000,766.000000) scale(0.100000,-0.100000)"
fill="#000000" stroke="none">
<path d="M2721 7643 c12 -15 12 -16 -3 -10 -22 8 -20 -15 2 -26 9 -4 5 -6 -12
-4 -18 3 -25 0 -20 -7 14 -23 10 -37 -14 -46 -17 -7 -22 -14 -17 -27 6 -15 5
-16 -9 -3 -14 13 -14 16 1 27 13 10 14 14 3 25 -11 11 -12 10 -6 -6 4 -11 3
-17 -2 -14 -5 2 -19 -6 -31 -19 -22 -23 -18 -34 5 -11 12 12 17 1 13 -31 -2
-7 2 -11 7 -7 5 3 9 -1 9 -9 0 -9 -4 -11 -11 -6 -7 6 -17 0 -29 -15 -17 -22
-17 -24 5 -36 13 -7 28 -11 33 -9 6 1 4 -3 -2 -10 -19 -19 -16 -34 4 -18 15
12 16 12 8 -1 -5 -8 -10 -19 -11 -25 -1 -5 -6 -19 -10 -30 -7 -18 -6 -19 12
-5 17 14 18 13 7 -1 -7 -9 -9 -20 -5 -25 4 -4 -1 -2 -11 5 -16 12 -20 12 -35
-4 -13 -15 -14 -16 -1 -7 13 10 19 8 33 -6 13 -16 14 -19 1 -19 -8 0 -12 4 -9
9 3 4 1 8 -5 8 -5 0 -9 -9 -8 -20 1 -11 6 -19 12 -16 6 2 11 -4 11 -14 0 -14
-4 -15 -17 -7 -11 7 -22 6 -35 -2 -18 -11 -18 -12 3 -6 21 6 35 -6 39 -33 2
-10 -1 -10 -11 -2 -11 9 -16 6 -25 -10 -6 -12 -14 -19 -18 -16 -3 3 5 18 19
33 13 15 17 22 9 16 -8 -6 -23 -9 -33 -8 -15 3 -16 1 -6 -11 9 -11 8 -15 -5
-20 -9 -3 -13 -11 -9 -18 3 -6 -4 -2 -17 9 l-24 20 16 -24 c19 -26 14 -53 -8
-44 -10 3 -12 0 -8 -10 3 -8 0 -18 -7 -23 -8 -4 -10 -3 -5 4 4 7 1 12 -9 12
-9 0 -14 -4 -11 -8 2 -4 0 -14 -6 -22 -8 -12 -9 -12 -4 3 3 9 0 17 -5 17 -6 0
-9 -10 -7 -23 3 -17 0 -23 -14 -24 -10 -1 -18 3 -18 8 0 5 -6 4 -14 -3 -8 -7
-13 -17 -13 -23 1 -5 -4 -9 -10 -10 -7 0 -13 -3 -13 -7 0 -5 0 -13 0 -20 0 -6
7 -3 16 8 8 10 13 14 10 7 -4 -6 -1 -13 6 -15 7 -3 2 -7 -10 -10 -15 -4 -29 0
-41 14 -18 18 -19 18 -18 1 1 -10 7 -21 12 -25 6 -5 5 -8 -3 -8 -10 0 -13 -20
-11 -81 1 -57 5 -79 14 -75 6 2 18 0 26 -5 12 -8 12 -10 -1 -8 -8 1 -22 1 -30
0 -13 -1 -13 -2 0 -11 10 -6 22 -4 38 6 13 9 27 13 30 9 4 -3 0 -10 -7 -14 -8
-6 -9 -11 -3 -15 6 -3 13 2 16 11 3 10 15 24 27 31 12 8 18 9 14 3 -3 -6 -1
-11 4 -11 6 0 11 -8 11 -17 0 -9 3 -13 7 -10 3 4 13 1 22 -6 8 -6 5 2 -7 20
-14 20 -19 34 -12 38 6 4 9 1 8 -7 -2 -7 4 -13 12 -13 9 0 15 9 14 23 -1 12 1
20 4 17 10 -9 10 -55 0 -49 -4 3 -8 0 -8 -6 0 -7 7 -9 16 -6 9 3 17 6 20 6 2
0 2 6 0 13 -1 6 -1 9 1 5 3 -5 11 -8 18 -8 8 0 17 -5 21 -12 4 -7 3 -8 -4 -4
-8 5 -10 2 -6 -9 4 -8 13 -14 22 -13 8 2 17 -3 20 -11 3 -8 0 -11 -6 -7 -6 3
-14 1 -18 -5 -4 -7 -3 -9 4 -5 6 3 13 2 17 -4 3 -5 2 -10 -4 -10 -6 0 -7 -7
-4 -17 4 -9 2 -14 -3 -10 -6 3 -11 -4 -11 -15 -2 -20 -1 -20 12 -2 13 19 14
19 32 0 12 -13 12 -16 2 -8 -22 16 -33 2 -11 -15 15 -12 15 -13 -8 -10 -14 2
-19 2 -12 0 7 -3 9 -9 6 -15 -4 -6 -2 -8 4 -4 6 3 14 1 18 -5 4 -8 3 -9 -4 -5
-7 4 -12 2 -12 -4 0 -8 -6 -8 -22 0 -22 10 -22 10 -4 -4 11 -9 16 -21 12 -32
-5 -14 -4 -15 9 -4 8 7 13 16 10 19 -2 4 3 8 11 8 10 0 11 -4 4 -11 -17 -17
-11 -29 8 -15 15 12 16 12 5 -2 -7 -8 -10 -28 -8 -45 4 -24 3 -26 -6 -11 -10
18 -12 17 -27 -5 -19 -26 -24 -48 -12 -48 14 0 21 18 9 22 -7 2 -5 9 6 18 15
13 17 11 14 -15 -3 -22 0 -29 11 -27 12 3 13 1 3 -9 -18 -18 -16 -34 1 -20 10
8 16 9 21 1 4 -6 1 -9 -7 -8 -7 2 -12 -3 -10 -11 3 -12 1 -12 -13 -1 -9 7 -14
19 -11 27 3 7 2 13 -3 13 -5 0 -11 -9 -14 -20 -3 -12 -1 -18 5 -14 6 4 8 -2 3
-17 -4 -16 -3 -20 3 -11 7 11 10 11 15 -3 4 -9 3 -13 -3 -10 -16 10 -12 -7 8
-28 16 -19 16 -20 -5 -8 -13 6 -23 16 -23 21 0 6 -5 10 -11 10 -8 0 -7 -5 2
-16 10 -13 10 -17 -2 -25 -10 -7 -8 -8 11 -7 19 2 24 -1 22 -16 -2 -10 1 -16
6 -13 4 3 8 -7 8 -23 0 -16 -4 -26 -8 -23 -13 7 -5 -30 7 -39 6 -5 5 -8 -4 -8
-8 0 -11 -6 -7 -16 3 -8 2 -12 -4 -9 -16 10 -12 -7 7 -29 14 -17 13 -16 -9 2
-17 15 -28 20 -33 13 -3 -6 -11 -8 -17 -5 -7 4 -8 2 -4 -4 8 -13 -28 -35 -39
-24 -5 4 -5 1 -1 -6 4 -7 11 -10 15 -8 4 3 8 -1 8 -9 0 -13 -3 -13 -23 0 -20
13 -22 13 -19 -3 1 -9 8 -16 15 -14 6 1 9 -2 5 -8 -3 -5 0 -10 7 -10 7 -1 3
-6 -9 -13 -25 -14 -26 -25 -2 -51 18 -18 16 -46 -3 -46 -7 0 -6 5 1 14 8 10 8
16 -2 24 -10 9 -13 6 -12 -11 0 -12 4 -28 8 -34 5 -8 4 -13 -2 -13 -6 0 -11
-5 -11 -11 0 -5 5 -7 10 -4 6 3 10 2 10 -4 0 -5 -6 -12 -12 -14 -10 -4 -10 -6
0 -6 6 -1 12 -8 12 -17 0 -13 -3 -14 -13 -5 -10 8 -14 7 -14 -4 0 -8 4 -12 9
-9 4 3 8 0 8 -6 0 -6 5 -8 10 -5 6 3 10 1 10 -6 0 -6 -8 -9 -19 -6 -14 3 -18
1 -14 -9 3 -9 13 -12 27 -9 21 6 21 6 1 -7 -21 -14 -31 -38 -16 -38 5 0 12 6
14 13 3 6 4 -3 2 -22 -2 -19 -9 -37 -16 -41 -8 -5 -4 -10 11 -15 l23 -7 -23
-13 c-17 -9 -19 -14 -9 -18 10 -4 11 -6 1 -6 -8 -1 -6 -8 8 -23 11 -12 18 -24
15 -27 -3 -2 -12 4 -19 15 -14 19 -15 19 -12 -1 2 -11 -2 -23 -8 -27 -8 -5 -7
-8 2 -8 7 0 10 -5 6 -12 -4 -7 -3 -8 5 -4 6 4 8 13 4 19 -4 7 0 6 10 -2 18
-15 23 -26 7 -16 -9 6 -14 -8 -11 -27 0 -5 -4 -8 -9 -8 -6 0 -2 -9 9 -21 19
-21 19 -49 -1 -49 -7 0 -6 5 1 14 8 10 8 16 -2 24 -10 9 -13 6 -12 -11 0 -12
4 -28 8 -34 5 -8 4 -13 -2 -13 -6 0 -11 -5 -11 -11 0 -5 5 -7 10 -4 6 3 10 2
10 -4 0 -5 -6 -12 -12 -14 -10 -4 -10 -6 0 -6 6 -1 12 -8 12 -17 0 -13 -3 -14
-13 -5 -10 8 -14 7 -14 -4 0 -8 4 -12 9 -9 4 3 8 0 8 -6 0 -6 5 -8 10 -5 6 3
10 1 10 -6 0 -6 -8 -9 -19 -6 -14 3 -18 1 -14 -9 3 -9 13 -12 27 -9 21 6 21 6
1 -7 -21 -14 -31 -38 -16 -38 5 0 12 6 14 13 3 6 4 -3 2 -22 -2 -19 -9 -37
-16 -41 -8 -5 -4 -10 11 -15 l23 -7 -23 -13 c-17 -9 -19 -14 -9 -18 10 -4 11
-6 1 -6 -8 -1 -6 -8 8 -23 11 -12 18 -24 15 -27 -3 -2 -12 4 -19 15 -14 19
-15 19 -12 -1 2 -11 -1 -23 -6 -26 -5 -3 -2 -9 7 -12 10 -5 14 -3 9 5 -4 7 -3
8 4 4 17 -10 15 -13 -15 -31 -23 -13 -24 -15 -5 -10 13 4 22 2 22 -4 0 -6 -5
-11 -11 -11 -6 0 -4 -7 5 -15 8 -9 12 -23 9 -32 -4 -11 -3 -14 6 -9 10 6 10 3
0 -12 -9 -15 -17 -18 -25 -11 -8 7 -15 6 -20 -2 -4 -7 -3 -9 4 -5 6 3 13 2 17
-3 4 -7 15 -7 33 -1 25 10 26 9 8 -5 -23 -17 -31 -46 -11 -38 8 2 22 0 32 -6
14 -8 15 -11 3 -11 -11 0 -9 -4 5 -13 11 -6 25 -12 30 -12 6 -1 9 -7 7 -15 -2
-8 0 -11 4 -7 16 16 12 35 -7 32 -10 -2 -21 1 -25 6 -3 6 2 9 12 8 11 -2 24 0
31 4 8 5 11 1 8 -13 -4 -19 9 -34 30 -35 6 0 9 -9 7 -19 -2 -10 1 -15 6 -12 5
3 18 -2 28 -10 10 -9 14 -13 8 -10 -7 3 -14 0 -17 -8 -6 -16 1 -26 17 -26 6 0
4 5 -4 10 -9 6 -10 10 -3 10 7 0 16 -6 20 -14 4 -8 17 -16 28 -19 11 -4 2 -4
-20 -2 l-40 4 30 -14 c17 -8 26 -14 21 -15 -11 0 14 -30 26 -30 5 0 8 6 5 13
-2 6 -10 11 -16 9 -7 -1 -10 2 -6 8 3 6 11 8 16 5 5 -4 9 -1 9 4 0 6 5 11 10
11 6 0 9 -3 9 -7 -1 -5 -1 -10 1 -13 10 -27 8 -56 -6 -72 -14 -14 -14 -18 -3
-18 11 0 11 -2 -1 -11 -13 -9 -13 -10 0 -6 8 2 14 11 12 21 -2 9 4 16 13 16
10 0 13 5 9 13 -4 6 -3 8 1 4 16 -14 14 -36 -3 -30 -9 4 -13 2 -9 -4 10 -16
-3 -44 -16 -36 -6 3 -7 1 -3 -6 5 -7 16 -9 28 -5 18 5 19 4 8 -8 -7 -8 -26
-13 -42 -12 -15 1 -26 -2 -23 -7 3 -4 13 -5 23 -2 15 6 16 5 2 -13 -11 -15
-11 -16 0 -6 8 6 19 12 25 12 5 -1 -1 -10 -14 -20 -13 -11 -18 -20 -12 -20 6
0 11 -4 11 -10 0 -5 -6 -8 -12 -6 -7 1 -10 1 -5 -1 4 -3 4 -10 0 -16 -4 -7 1
-6 11 2 9 8 15 20 12 28 -3 8 -1 11 4 8 6 -3 10 -1 10 5 0 6 5 8 11 4 8 -5 8
-9 -1 -14 -7 -4 -9 -13 -5 -20 6 -9 4 -11 -5 -5 -8 5 -11 3 -8 -6 3 -8 11 -13
17 -11 7 1 10 -2 6 -8 -3 -6 -11 -8 -16 -5 -13 9 -11 -9 4 -24 10 -11 8 -11
-12 -1 -13 7 -21 7 -17 2 3 -6 2 -14 -4 -17 -8 -5 -7 -12 2 -23 10 -12 10 -16
1 -19 -20 -7 -15 -19 7 -20 11 -1 20 3 20 8 0 6 -3 8 -8 6 -4 -3 -7 8 -7 24
-1 19 3 25 9 19 22 -22 8 -89 -15 -74 -5 3 -6 -2 -3 -11 6 -14 9 -14 28 2 21
18 21 18 4 -3 -14 -16 -15 -23 -5 -34 7 -8 1 -7 -15 3 -16 10 -28 13 -28 7 0
-5 5 -10 10 -10 11 0 14 -33 3 -44 -9 -9 -13 -36 -5 -35 19 3 30 -2 36 -16 4
-13 2 -14 -14 -5 -16 9 -18 8 -13 -6 5 -13 3 -15 -7 -9 -9 6 -11 4 -5 -5 6
-10 3 -12 -11 -7 -15 5 -15 4 3 -9 18 -13 20 -20 13 -34 -7 -13 -7 -21 0 -25
5 -3 10 -11 10 -17 0 -6 -7 -5 -17 3 -17 13 -17 13 -1 -7 14 -16 15 -23 6 -32
-9 -9 -9 -12 0 -12 11 0 16 13 13 32 0 4 9 6 20 5 16 -1 17 -4 7 -12 -14 -11
-17 -29 -6 -40 9 -9 -2 -35 -14 -35 -7 0 -6 5 1 14 9 11 8 15 -5 20 -24 9 -31
7 -14 -5 11 -7 12 -12 3 -15 -8 -4 -5 -12 8 -25 11 -11 18 -27 15 -35 -3 -8 0
-14 7 -14 8 0 7 -3 -2 -9 -8 -5 -20 -7 -28 -4 -7 3 -13 0 -13 -7 0 -6 5 -8 12
-4 8 5 9 2 5 -10 -4 -10 -1 -19 8 -22 8 -4 15 -11 15 -16 0 -6 -11 -3 -24 6
-19 12 -27 13 -32 3 -4 -6 -4 -9 1 -5 4 4 19 -1 33 -12 13 -11 29 -17 36 -13
6 3 7 2 3 -3 -5 -5 -18 -9 -30 -9 -16 0 -22 -6 -23 -22 -1 -12 2 -20 7 -17 4
2 5 12 2 22 -7 18 -5 17 17 -12 8 -11 10 -17 3 -13 -6 4 -13 2 -15 -4 -2 -5
-11 -7 -21 -4 -9 4 -14 12 -10 18 3 6 1 7 -5 3 -9 -5 -9 -13 -2 -27 13 -23 7
-25 -14 -3 -9 8 -16 11 -16 6 0 -6 -7 -13 -16 -16 -8 -3 -12 -2 -9 4 3 6 3 10
-2 11 -4 0 -16 2 -25 4 -10 2 -18 -3 -18 -10 0 -16 -27 -27 -35 -14 -4 5 -1 8
6 7 6 -2 14 3 16 10 6 16 -28 5 -43 -15 -10 -11 -13 -11 -18 2 -4 11 -11 13
-23 7 -10 -5 -30 -8 -45 -7 -15 1 -25 -2 -22 -7 3 -4 9 -6 12 -4 4 2 13 -7 19
-21 12 -25 12 -25 -9 -7 -21 19 -21 19 -9 -3 9 -17 8 -25 -5 -37 -9 -9 -11
-16 -4 -16 6 0 8 -5 4 -12 -4 -6 -3 -8 4 -4 7 4 10 -1 9 -14 -1 -11 -5 -20
-10 -20 -4 0 1 -9 12 -21 19 -21 19 -49 -1 -49 -7 0 -6 5 1 14 8 10 8 16 -2
24 -10 9 -13 6 -12 -11 0 -12 4 -28 8 -34 5 -8 4 -13 -2 -13 -6 0 -11 -5 -11
-11 0 -5 4 -7 10 -4 6 3 10 2 10 -4 0 -5 -6 -12 -12 -14 -10 -4 -10 -6 0 -6 6
-1 12 -8 12 -17 0 -13 -3 -14 -13 -5 -10 8 -14 7 -14 -4 0 -8 4 -12 9 -9 4 3
8 0 8 -6 0 -6 4 -8 10 -5 6 3 10 1 10 -6 0 -6 -8 -9 -19 -6 -14 3 -18 1 -14
-9 3 -9 13 -12 27 -9 21 6 21 6 1 -7 -21 -14 -31 -38 -16 -38 5 0 12 6 14 13
3 6 4 -3 2 -22 -2 -19 -9 -37 -16 -41 -8 -5 -4 -10 11 -15 l23 -7 -23 -13
c-17 -9 -19 -14 -9 -18 10 -4 11 -6 1 -6 -8 -1 -6 -8 8 -23 11 -12 18 -24 15
-27 -3 -2 -12 4 -19 15 -14 19 -15 19 -12 -1 2 -11 -2 -23 -8 -27 -8 -5 -7 -8
2 -8 7 0 10 -5 6 -12 -4 -7 -3 -8 5 -4 6 4 8 13 4 19 -4 7 0 6 10 -2 18 -15
23 -26 7 -16 -9 6 -14 -8 -11 -27 0 -5 -4 -8 -9 -8 -6 0 -2 -9 9 -21 19 -21
19 -49 -1 -49 -7 0 -6 5 1 14 8 10 8 16 -2 24 -10 9 -13 6 -12 -11 0 -12 4
-28 8 -34 5 -8 4 -13 -2 -13 -6 0 -11 -5 -11 -11 0 -5 4 -7 10 -4 6 3 10 2 10
-4 0 -5 -6 -12 -12 -14 -10 -4 -10 -6 0 -6 6 -1 12 -8 12 -17 0 -13 -3 -14
-13 -5 -10 8 -14 7 -14 -4 0 -8 4 -12 9 -9 4 3 8 0 8 -6 0 -6 5 -8 10 -5 6 3
10 1 10 -6 0 -6 -8 -9 -19 -6 -14 3 -18 1 -14 -9 3 -9 13 -12 27 -9 21 6 21 6
1 -7 -21 -14 -31 -38 -16 -38 5 0 12 6 14 13 3 6 4 -3 2 -22 -2 -19 -9 -37
-16 -41 -8 -5 -4 -10 11 -15 l23 -7 -23 -13 c-17 -9 -19 -14 -9 -18 10 -4 11
-6 1 -6 -8 -1 -6 -8 8 -23 11 -12 18 -24 15 -27 -3 -2 -12 4 -19 15 -14 19
-15 19 -12 -1 2 -11 -2 -23 -8 -27 -8 -5 -7 -8 2 -8 7 0 10 -4 7 -10 -3 -5 -1
-10 5 -10 7 0 9 7 6 16 -6 14 -4 15 9 4 15 -12 15 -15 -2 -24 -19 -12 -29 -36
-14 -36 5 0 12 6 14 13 3 6 4 -3 2 -22 -2 -19 -9 -37 -16 -41 -8 -5 -4 -10 11
-15 23 -7 23 -8 4 -19 -20 -12 -30 -36 -15 -36 5 0 12 -7 15 -16 5 -14 4 -15
-9 -4 -9 7 -18 10 -22 6 -3 -3 -1 -6 6 -6 7 0 9 -5 6 -10 -3 -6 -2 -10 3 -10
6 0 13 -7 16 -16 5 -13 4 -14 -7 -6 -10 9 -14 8 -14 -3 0 -8 4 -15 8 -15 12 0
19 -29 8 -35 -5 -4 -8 -1 -7 6 2 6 -4 14 -12 16 -10 3 -11 2 -4 -4 6 -4 10
-16 8 -26 -1 -10 6 -27 16 -37 16 -16 16 -19 4 -24 -8 -3 -13 -2 -10 2 3 5 -1
9 -9 9 -8 0 -11 -5 -7 -11 4 -6 7 -14 7 -18 0 -3 4 -10 9 -15 5 -5 6 -3 2 4
-5 9 -2 11 10 6 15 -5 15 -7 0 -15 -9 -5 -14 -14 -11 -19 4 -5 12 -6 18 -2 7
4 6 0 -2 -10 -14 -17 -26 -24 -17 -9 3 5 -1 9 -9 9 -11 0 -12 -4 -4 -13 7 -9
5 -15 -8 -23 -16 -9 -16 -10 4 -8 12 0 20 4 18 7 -2 4 3 7 12 7 12 0 11 -5 -7
-19 -12 -10 -18 -18 -12 -18 5 0 13 -7 16 -16 5 -14 4 -15 -9 -4 -9 7 -18 10
-22 6 -3 -3 -1 -6 6 -6 7 0 9 -4 6 -10 -3 -5 -2 -10 3 -10 6 0 13 -7 16 -16 5
-13 4 -14 -7 -6 -10 9 -14 8 -14 -3 0 -8 4 -15 8 -15 12 0 19 -29 8 -35 -5 -4
-8 -1 -7 6 2 6 -4 14 -12 16 -10 3 -11 2 -4 -4 6 -4 10 -16 8 -26 -1 -10 6
-27 16 -37 16 -16 16 -19 4 -24 -8 -3 -13 -2 -10 2 3 5 -1 9 -9 9 -8 0 -11 -5
-7 -11 4 -6 7 -14 7 -18 0 -3 4 -10 9 -15 5 -5 6 -3 2 4 -5 9 -2 11 10 6 15
-5 15 -7 0 -15 -9 -5 -14 -14 -11 -19 4 -5 12 -6 18 -2 7 4 6 0 -2 -10 -14
-17 -26 -24 -17 -9 3 5 -1 9 -9 9 -11 0 -12 -4 -4 -13 7 -9 5 -15 -8 -23 -16
-9 -16 -10 4 -8 12 0 20 4 18 7 -2 4 3 7 12 7 12 0 11 -5 -7 -19 -12 -10 -18
-18 -12 -18 5 0 13 -7 16 -16 5 -14 4 -15 -9 -4 -9 7 -18 10 -22 6 -3 -3 -1
-6 6 -6 7 0 9 -4 6 -10 -3 -5 -2 -10 3 -10 6 0 13 -7 16 -16 5 -13 4 -14 -7
-6 -10 9 -14 8 -14 -3 0 -8 4 -15 8 -15 12 0 19 -29 8 -35 -5 -4 -8 -1 -7 6 2
6 -4 14 -12 16 -10 3 -11 2 -4 -4 6 -4 10 -16 8 -26 -1 -10 6 -27 16 -37 16
-16 16 -19 4 -24 -8 -3 -13 -2 -10 2 3 5 -1 9 -9 9 -8 0 -11 -5 -7 -11 4 -6 7
-14 7 -18 0 -3 4 -10 9 -15 5 -5 6 -3 2 4 -5 9 -2 11 10 6 15 -5 15 -7 0 -15
-9 -5 -14 -14 -11 -19 4 -5 12 -6 18 -2 7 4 6 0 -2 -10 -14 -17 -26 -24 -17
-9 3 5 -1 9 -9 9 -11 0 -12 -4 -4 -13 7 -9 5 -15 -8 -23 -16 -9 -16 -10 4 -8
12 0 20 4 18 7 -2 4 3 7 12 7 12 0 11 -5 -7 -19 -12 -10 -18 -18 -12 -18 5 0
13 -7 16 -16 5 -14 4 -15 -9 -4 -9 7 -18 10 -22 6 -3 -3 -1 -6 6 -6 7 0 9 -4
6 -10 -3 -5 -2 -10 3 -10 6 0 13 -7 16 -16 5 -13 4 -14 -7 -6 -10 9 -14 8 -14
-3 0 -8 4 -15 8 -15 12 0 19 -29 8 -35 -5 -4 -8 -1 -7 6 2 6 -4 14 -12 16 -10
3 -11 2 -4 -4 6 -4 10 -16 8 -26 -1 -10 6 -27 16 -37 16 -16 16 -19 4 -24 -8
-3 -13 -2 -10 2 3 5 -1 9 -9 9 -8 0 -11 -5 -7 -11 4 -6 7 -14 7 -18 0 -3 4
-10 9 -15 5 -5 6 -3 2 4 -5 9 -2 11 10 6 15 -5 15 -7 0 -15 -9 -5 -14 -14 -11
-19 4 -5 12 -6 18 -2 7 4 6 0 -2 -10 -14 -17 -26 -24 -17 -9 3 5 -1 9 -9 9
-11 0 -12 -4 -4 -13 7 -9 5 -15 -8 -23 -16 -9 -16 -10 4 -8 12 0 20 4 18 7 -2
4 3 7 12 7 12 0 11 -5 -7 -19 -12 -10 -18 -18 -12 -18 5 0 13 -7 16 -16 5 -14
4 -15 -9 -4 -9 7 -18 10 -22 6 -3 -3 -1 -6 6 -6 7 0 9 -4 6 -10 -3 -5 -2 -10
3 -10 6 0 13 -7 16 -16 5 -13 4 -14 -7 -6 -10 9 -14 8 -14 -3 0 -8 4 -15 8
-15 12 0 19 -29 8 -35 -5 -4 -8 -1 -7 6 2 6 -4 14 -12 16 -10 3 -11 2 -4 -4 6
-4 10 -16 8 -26 -1 -10 6 -27 16 -37 16 -16 16 -19 4 -24 -8 -3 -13 -2 -10 2
3 5 -1 9 -9 9 -8 0 -11 -5 -7 -11 4 -6 7 -14 7 -18 0 -3 4 -10 9 -15 5 -5 6
-3 2 4 -5 9 -2 11 10 6 15 -5 15 -7 0 -15 -9 -5 -14 -14 -11 -19 4 -5 12 -6
18 -2 7 4 6 0 -2 -10 -14 -17 -26 -24 -17 -9 3 5 -1 9 -9 9 -11 0 -12 -4 -4
-13 7 -9 5 -15 -8 -23 -16 -9 -16 -10 4 -8 12 0 20 4 18 7 -2 4 3 7 12 7 12 0
11 -5 -7 -19 -12 -10 -18 -18 -12 -18 5 0 13 -7 16 -16 5 -14 4 -15 -9 -4 -9
7 -18 10 -22 6 -3 -3 -1 -6 6 -6 7 0 9 -5 6 -10 -3 -6 -2 -10 3 -10 6 0 13 -7
16 -16 5 -13 4 -14 -7 -6 -10 9 -14 8 -14 -3 0 -8 4 -15 8 -15 12 0 19 -29 8
-35 -5 -4 -8 -1 -7 6 2 6 -4 14 -12 16 -10 3 -11 2 -4 -4 6 -4 10 -16 8 -26
-1 -10 6 -27 16 -37 16 -16 16 -19 4 -24 -8 -3 -13 -2 -10 2 3 5 -1 9 -9 9 -8
0 -11 -5 -7 -11 4 -6 7 -14 7 -18 0 -3 4 -10 9 -15 5 -5 6 -3 2 4 -5 9 -2 11
10 6 15 -5 15 -7 0 -15 -9 -5 -14 -14 -11 -19 4 -5 12 -6 18 -2 7 4 6 0 -2
-10 -14 -17 -26 -24 -17 -9 3 5 -1 9 -9 9 -11 0 -12 -4 -4 -13 7 -9 5 -15 -8
-23 -16 -9 -16 -10 4 -8 12 0 20 4 18 7 -2 4 3 7 12 7 12 0 11 -5 -7 -19 -12
-10 -18 -18 -12 -18 5 0 13 -7 16 -16 5 -14 4 -15 -9 -4 -9 7 -18 10 -22 6 -3
-3 -1 -6 6 -6 7 0 9 -4 6 -10 -3 -5 -2 -10 3 -10 6 0 13 -7 16 -16 5 -13 4
-14 -7 -6 -10 9 -14 8 -14 -3 0 -8 4 -15 8 -15 12 0 19 -29 8 -35 -5 -4 -8 -1
-7 6 2 6 -4 14 -12 16 -10 3 -11 2 -4 -4 6 -4 10 -16 8 -26 -1 -10 6 -27 16
-37 16 -16 16 -19 4 -24 -8 -3 -13 -2 -10 2 3 5 -1 9 -9 9 -8 0 -11 -5 -7 -11
4 -6 7 -14 7 -18 0 -3 4 -10 9 -15 5 -5 6 -3 2 4 -5 9 -2 11 10 6 15 -5 15 -7
0 -15 -9 -5 -14 -14 -11 -19 4 -5 11 -7 16 -4 15 10 10 -2 -8 -16 -9 -8 -14
-9 -10 -3 3 6 0 11 -8 11 -11 0 -12 -4 -4 -13 7 -9 5 -15 -8 -23 -16 -9 -16
-10 4 -8 12 0 20 4 18 7 -2 4 3 7 12 7 12 0 11 -5 -7 -19 -12 -10 -18 -18 -12
-18 5 0 13 -7 16 -16 5 -14 4 -15 -9 -4 -9 7 -18 10 -22 6 -3 -3 -1 -6 6 -6 7
0 9 -4 6 -10 -3 -5 -2 -10 3 -10 6 0 13 -7 16 -16 5 -13 4 -14 -7 -6 -10 9
-14 8 -14 -3 0 -8 4 -15 8 -15 12 0 19 -29 8 -35 -5 -4 -8 -1 -7 6 2 6 -4 14
-12 16 -10 3 -11 2 -4 -4 6 -4 10 -16 8 -26 -1 -10 6 -27 16 -37 16 -16 16
-19 4 -24 -8 -3 -13 -2 -10 2 3 5 -1 9 -9 9 -9 0 -11 -4 -6 -11 5 -6 9 -14 8
-18 -1 -3 2 -10 7 -15 5 -5 6 -3 2 4 -5 9 -2 11 10 6 15 -5 15 -7 0 -15 -9 -5
-14 -14 -11 -19 4 -5 11 -7 16 -4 15 10 10 -2 -8 -16 -9 -8 -14 -9 -10 -3 3 6
0 11 -8 11 -19 0 -19 -2 0 -21 13 -13 63 -15 338 -16 177 0 336 4 352 9 22 7
25 10 10 11 -11 1 -14 4 -7 7 6 2 9 9 6 14 -3 6 0 17 8 26 7 9 9 14 3 12 -5
-3 -18 2 -27 12 -14 15 -14 18 -2 23 8 3 12 2 9 -3 -3 -5 -1 -12 4 -15 5 -4
12 -2 15 3 9 14 -20 32 -40 25 -16 -5 -16 -4 -4 5 8 6 23 8 33 5 9 -3 17 0 17
6 0 6 -4 9 -8 6 -4 -2 -14 -1 -22 5 -12 7 -10 9 7 9 12 0 25 4 28 10 3 5 0 7
-8 4 -8 -3 -17 -1 -20 3 -3 5 8 10 24 11 18 1 29 -3 29 -10 0 -10 3 -9 9 1 5
8 14 10 22 5 11 -6 12 -5 2 7 -10 12 -8 15 7 15 10 0 16 -4 14 -8 -8 -12 11
-9 24 4 7 7 12 8 12 2 0 -6 -5 -15 -10 -20 -7 -7 -6 -11 4 -11 8 0 13 4 10 9
-3 4 -1 8 5 8 5 0 12 -6 14 -12 4 -10 6 -9 6 1 1 11 4 11 19 0 15 -13 16 -12
3 3 -7 10 -17 16 -21 13 -5 -3 -11 -2 -14 3 -2 4 8 8 24 7 15 0 26 -3 23 -7
-4 -8 11 -12 36 -9 8 2 10 -2 5 -11 -6 -9 -3 -9 10 1 15 13 19 13 28 0 8 -12
9 -12 5 1 -2 8 -11 15 -20 15 -35 0 -23 11 13 11 22 0 40 -3 40 -8 0 -5 -5 -6
-12 -2 -6 4 -8 3 -5 -2 3 -5 18 -9 34 -8 15 0 31 -4 35 -10 5 -7 8 -7 8 2 0 7
5 10 10 7 6 -3 10 -1 10 5 0 6 -11 8 -25 6 -13 -3 -27 -1 -29 3 -3 3 13 7 35
7 35 0 39 -2 33 -20 -4 -17 -3 -18 5 -6 10 13 12 13 21 0 6 -10 10 -11 10 -3
0 7 7 10 18 7 14 -5 14 -4 2 4 -8 6 -17 9 -21 6 -4 -2 -10 -1 -13 4 -2 4 8 8
24 7 15 0 27 -2 25 -5 -2 -3 0 -12 6 -20 7 -12 9 -9 9 10 1 20 2 22 10 9 11
-18 72 -18 95 1 17 14 21 0 5 -16 -7 -7 -6 -11 4 -11 8 0 13 4 11 8 -3 3 3 13
12 20 15 12 16 12 10 -4 -4 -10 -3 -16 2 -12 5 3 11 2 14 -2 2 -5 3 -3 2 2 -2
6 12 11 30 11 19 0 32 -4 31 -10 -2 -6 -1 -7 2 -3 2 4 11 2 20 -5 12 -10 14
-10 8 0 -5 9 3 12 32 12 21 0 42 3 46 7 10 11 37 12 30 2 -3 -5 -10 -6 -16 -3
-7 4 -8 2 -4 -4 4 -6 13 -9 21 -5 9 3 23 -1 32 -8 9 -8 14 -9 10 -3 -4 7 1 18
10 25 14 12 15 11 9 -11 -4 -14 -4 -20 1 -14 10 14 66 14 76 0 6 -7 7 -4 3 6
-3 10 -1 20 4 23 6 4 10 2 10 -3 0 -6 7 -13 16 -16 15 -6 15 -4 3 10 -13 16
-12 16 9 5 12 -6 22 -17 22 -23 0 -6 3 -9 6 -6 3 4 1 17 -6 30 -10 21 -10 21
3 6 8 -10 21 -18 30 -18 9 0 19 -5 22 -10 4 -6 11 -8 16 -4 5 3 7 10 3 15 -3
5 -9 7 -13 5 -4 -3 -13 0 -21 5 -11 7 -7 8 14 5 16 -3 38 -13 49 -23 11 -10
17 -13 13 -6 -4 7 1 16 12 22 14 7 19 6 19 -4 0 -8 -5 -11 -10 -8 -6 4 -7 1
-2 -6 5 -9 10 -10 18 -2 15 15 24 14 31 -5 4 -10 2 -13 -6 -8 -8 5 -9 2 -5 -9
3 -9 1 -19 -5 -23 -6 -4 -8 -3 -4 4 3 6 2 13 -3 16 -5 4 -8 -2 -6 -11 1 -10 8
-17 14 -15 6 1 14 -5 17 -13 3 -8 10 -13 14 -10 5 3 11 1 14 -4 7 -10 -20 -9
-30 2 -4 4 -14 7 -22 7 -9 0 -6 -7 9 -19 20 -17 22 -22 10 -33 -8 -7 -11 -8
-8 -3 8 16 -8 40 -17 26 -4 -6 -3 -11 3 -11 10 0 9 -25 -2 -36 -4 -4 -2 -13 4
-20 9 -11 83 -13 358 -13 324 0 348 1 346 17 0 10 -5 24 -10 31 -5 10 -4 12 3
7 7 -4 12 -3 12 3 0 5 -8 12 -17 14 -16 4 -15 5 1 6 20 1 20 1 0 17 -17 14
-17 15 -1 10 12 -4 17 -2 14 6 -2 7 -12 12 -22 10 -14 -3 -15 -1 -4 11 11 11
18 12 29 4 12 -9 13 -9 3 3 -10 10 -9 16 4 25 13 10 13 14 3 20 -9 5 -11 4 -6
-3 11 -18 -10 -14 -25 5 -8 10 -9 14 -2 10 6 -4 14 -3 18 3 3 5 2 10 -4 10 -6
0 -8 7 -4 15 3 9 2 15 -3 13 -5 -2 -10 2 -11 7 -2 6 1 10 6 10 5 0 13 3 17 8
4 4 2 7 -4 7 -6 0 -9 7 -6 15 4 8 10 12 15 9 5 -3 9 -3 9 1 0 3 -10 10 -22 15
-20 8 -21 9 -4 9 20 1 20 1 0 17 -17 14 -17 15 -1 10 12 -4 17 -2 14 6 -2 7
-12 12 -22 10 -14 -3 -15 -1 -4 11 11 11 18 12 29 4 12 -9 13 -9 3 3 -10 10
-9 16 4 25 13 10 13 14 3 20 -9 5 -11 4 -6 -3 11 -18 -10 -14 -25 5 -8 10 -9
14 -2 10 6 -4 14 -3 18 3 3 5 2 10 -4 10 -6 0 -8 7 -4 15 3 9 2 15 -3 13 -5
-2 -10 2 -11 7 -2 6 1 10 6 10 5 0 13 3 17 8 4 4 2 7 -4 7 -6 0 -9 7 -6 15 4
8 10 12 15 9 5 -3 9 -3 9 1 0 3 -10 10 -22 15 -20 8 -21 9 -4 9 20 1 20 1 0
17 -17 14 -17 15 -1 10 12 -4 17 -2 14 6 -2 7 -12 12 -22 10 -14 -3 -15 -1 -4
11 11 11 18 12 29 4 12 -9 13 -9 3 3 -10 10 -9 16 4 25 13 10 13 14 3 20 -9 5
-11 4 -6 -3 11 -18 -10 -14 -25 5 -8 10 -9 14 -2 10 6 -4 14 -3 18 3 3 5 2 10
-4 10 -6 0 -8 7 -4 15 3 9 2 15 -3 13 -5 -2 -10 2 -11 7 -2 6 1 10 6 10 5 0
13 3 17 8 4 4 2 7 -4 7 -6 0 -9 7 -6 15 4 8 10 12 15 9 5 -3 9 -3 9 1 0 3 -10
10 -22 15 -20 8 -21 9 -4 9 20 1 20 1 0 17 -17 14 -17 15 -1 10 12 -4 17 -2
14 6 -2 7 -12 12 -22 10 -14 -3 -15 -1 -4 11 11 11 18 12 29 4 12 -9 13 -9 3
3 -10 10 -9 16 4 25 13 10 13 14 3 20 -9 5 -11 4 -6 -3 11 -18 -10 -14 -25 5
-8 10 -9 14 -2 10 6 -4 14 -3 18 3 3 5 2 10 -4 10 -6 0 -8 7 -4 15 3 9 2 15
-3 13 -5 -2 -10 2 -11 7 -2 6 1 10 6 10 5 0 13 3 17 8 4 4 2 7 -4 7 -6 0 -9 7
-6 15 4 8 10 12 15 9 5 -3 9 -3 9 1 0 3 -10 10 -22 15 -20 8 -21 9 -4 9 20 1
20 1 0 17 -17 14 -17 15 -1 10 12 -4 17 -2 14 6 -2 7 -12 12 -22 10 -14 -3
-15 -1 -4 11 11 11 18 12 29 4 12 -9 13 -9 3 3 -10 10 -9 16 4 25 13 10 13 14
3 20 -9 5 -11 4 -6 -3 11 -18 -10 -14 -25 5 -8 10 -9 14 -2 10 6 -4 14 -3 18
3 3 5 2 10 -4 10 -6 0 -8 7 -4 15 3 9 2 15 -3 13 -5 -2 -10 2 -12 7 -1 6 2 10
7 10 5 0 13 3 17 8 4 4 2 7 -4 7 -6 0 -9 7 -6 15 4 8 10 12 15 9 5 -3 9 -3 9
1 0 3 -10 10 -22 15 -20 8 -21 9 -4 9 20 1 20 1 0 17 -17 14 -17 15 -1 10 12
-4 17 -2 14 6 -2 7 -12 12 -22 10 -14 -3 -15 -1 -4 11 11 11 18 12 29 4 12 -9
13 -9 3 3 -10 10 -9 16 4 25 13 10 13 14 3 20 -9 5 -11 4 -6 -3 11 -18 -10
-14 -25 5 -8 10 -9 14 -2 10 6 -4 14 -3 18 3 3 5 2 10 -4 10 -6 0 -8 7 -4 15
3 9 2 15 -3 13 -5 -2 -10 2 -11 7 -2 6 1 10 6 10 5 0 13 3 17 8 4 4 2 7 -4 7
-6 0 -9 7 -6 15 4 8 10 12 15 9 5 -3 9 -3 9 1 0 3 -10 10 -22 15 -20 8 -21 9
-4 9 20 1 20 1 0 17 -17 14 -17 15 -1 10 12 -4 17 -2 14 6 -2 7 -12 12 -22 10
-14 -3 -15 -1 -4 11 11 11 18 12 29 4 12 -9 13 -9 3 3 -10 10 -9 16 4 25 13
10 13 14 3 20 -9 5 -11 4 -6 -3 11 -18 -10 -14 -25 5 -8 10 -9 14 -2 10 6 -4
14 -3 18 3 3 5 2 10 -4 10 -6 0 -8 7 -4 15 3 9 2 15 -3 13 -5 -2 -10 2 -12 7
-1 6 2 10 7 10 5 0 13 3 17 8 4 4 2 7 -4 7 -6 0 -9 7 -6 15 4 8 10 12 15 9 5
-3 9 -3 9 1 0 3 -10 10 -22 15 -20 8 -21 9 -4 9 20 1 20 1 0 17 -17 14 -17 15
-1 10 12 -4 17 -2 14 6 -2 7 -12 12 -22 10 -14 -3 -15 -1 -4 11 11 11 18 12
29 4 12 -9 13 -9 3 3 -10 10 -9 16 4 25 13 10 13 14 3 20 -9 5 -11 4 -6 -3 11
-18 -10 -14 -25 5 -8 10 -9 14 -2 10 6 -4 14 -3 18 3 3 5 2 10 -4 10 -6 0 -8
7 -4 15 3 9 2 15 -3 13 -5 -2 -10 2 -11 7 -2 6 1 10 6 10 5 0 13 3 17 7 4 5 2
8 -4 8 -6 0 -9 7 -6 15 4 8 10 12 15 9 5 -3 9 -3 9 1 0 3 -10 10 -22 15 -20 8
-21 9 -4 9 20 1 20 1 0 17 -17 14 -17 15 -1 10 12 -4 17 -2 14 6 -2 7 -12 12
-22 10 -14 -3 -15 -1 -4 11 11 11 18 12 29 4 12 -9 13 -9 3 3 -10 10 -9 16 4
25 13 10 13 14 3 20 -9 5 -11 4 -6 -3 11 -18 -10 -14 -25 5 -8 10 -9 14 -2 10
6 -4 14 -3 18 3 3 5 2 10 -4 10 -6 0 -8 7 -4 15 3 9 2 15 -3 13 -5 -2 -10 2
-11 7 -2 6 1 10 6 10 5 0 13 3 17 7 4 5 2 8 -4 8 -6 0 -9 7 -6 15 4 8 11 12
18 8 7 -3 6 -1 -1 7 -11 12 -16 11 -29 -6 -15 -18 -15 -18 -4 3 6 13 16 23 22
23 7 0 3 7 -8 16 -16 13 -16 15 -2 10 14 -4 17 0 14 24 -2 18 1 30 8 30 8 0 8
2 0 8 -6 4 -10 15 -8 25 1 9 -3 17 -8 17 -6 0 -4 8 5 18 15 17 15 18 -4 19
-12 1 -17 -3 -13 -9 4 -7 2 -8 -5 -4 -15 10 -4 26 17 26 13 1 11 5 -8 16 -14
8 -17 13 -7 10 9 -3 17 0 17 6 0 6 7 5 18 -3 15 -13 16 -12 3 4 -8 10 -21 15
-30 12 -14 -4 -13 -3 1 8 15 12 15 14 0 26 -16 11 -15 11 1 6 12 -3 17 -1 14
7 -2 7 -13 12 -23 10 -11 -2 -15 0 -8 5 9 7 34 66 34 81 0 2 -7 -1 -15 -8 -8
-7 -12 -17 -8 -23 3 -6 1 -7 -6 -3 -7 5 -9 12 -3 19 5 7 12 24 16 39 3 14 9
34 13 45 6 16 5 16 -10 4 -9 -7 -14 -18 -10 -24 3 -6 1 -7 -6 -3 -7 5 -9 12
-3 19 5 7 12 24 16 39 3 14 9 34 13 45 6 16 5 16 -10 4 -9 -7 -14 -18 -10 -24
3 -6 1 -7 -6 -3 -7 5 -9 12 -3 19 5 7 12 24 16 39 3 14 9 34 13 45 6 16 5 16
-10 4 -9 -7 -14 -18 -10 -24 3 -6 1 -7 -6 -3 -7 5 -9 12 -3 19 5 7 12 24 16
39 3 14 9 34 13 45 6 16 5 16 -10 4 -9 -7 -14 -18 -10 -24 3 -6 1 -7 -6 -3 -7
5 -9 12 -3 19 5 7 12 24 16 39 3 14 9 34 13 45 6 16 5 16 -10 4 -9 -7 -14 -18
-10 -24 3 -6 1 -7 -6 -3 -7 5 -9 12 -3 19 5 7 12 24 16 39 3 14 9 34 13 45 6
16 5 16 -10 4 -9 -7 -14 -18 -10 -24 3 -6 1 -7 -6 -3 -7 5 -9 12 -3 19 5 7 12
24 16 39 3 14 9 34 13 45 6 16 5 16 -10 4 -9 -7 -14 -18 -10 -24 3 -6 1 -7 -6
-3 -7 5 -9 12 -3 19 5 7 12 24 16 39 3 14 9 34 13 45 6 16 5 16 -10 4 -9 -7
-14 -18 -10 -24 3 -6 1 -7 -6 -3 -7 5 -9 12 -3 19 5 7 12 24 16 39 3 14 9 34
13 45 6 16 5 16 -10 4 -9 -7 -14 -18 -10 -24 3 -6 1 -7 -6 -3 -7 5 -9 12 -3
19 5 7 12 24 16 39 3 14 9 34 13 45 6 16 5 16 -10 4 -9 -7 -14 -18 -10 -24 3
-6 1 -7 -6 -3 -7 5 -9 12 -3 19 5 7 12 24 16 39 3 14 9 34 13 45 6 16 5 16
-10 4 -9 -7 -14 -18 -10 -24 3 -6 1 -7 -6 -3 -7 5 -9 12 -3 19 5 7 12 24 16
39 3 14 9 34 13 45 6 16 5 16 -10 4 -9 -7 -14 -18 -10 -24 3 -6 1 -7 -6 -3 -7
5 -9 12 -3 19 5 7 12 24 16 39 3 14 9 34 13 45 6 16 5 16 -10 4 -9 -7 -14 -18
-10 -24 3 -6 1 -7 -6 -3 -8 5 -9 12 -3 19 8 10 24 65 26 89 1 3 4 10 8 14 5 4
-1 14 -12 21 -11 8 -18 19 -15 24 4 5 1 9 -4 9 -14 0 -14 -13 0 -27 8 -8 8
-13 0 -18 -7 -3 -10 -1 -9 7 2 7 -7 14 -19 16 -13 2 -23 -1 -23 -7 0 -6 -4
-11 -8 -11 -5 0 -9 7 -9 15 0 8 4 12 9 9 4 -3 8 -1 8 4 0 10 -22 22 -47 28 -7
1 -11 -3 -10 -9 1 -7 -11 -12 -31 -11 -21 0 -31 -4 -28 -11 3 -8 -4 -10 -21
-7 -19 4 -24 2 -18 -8 6 -9 3 -10 -12 -1 -11 6 -24 7 -28 3 -5 -4 -5 -1 -1 6
4 7 12 10 17 7 5 -4 18 0 29 8 18 13 19 15 5 21 -9 3 -14 2 -10 -3 10 -17 -20
-18 -47 -3 -28 17 -30 19 -31 50 -1 9 -6 21 -12 25 -6 5 -4 7 5 4 8 -2 14 -10
13 -16 -2 -6 2 -11 7 -11 14 0 13 5 -11 51 -11 23 -15 38 -8 33 9 -5 10 -2 6
10 -6 14 -3 16 16 11 15 -4 18 -3 8 3 -11 8 -11 10 0 14 9 3 8 6 -5 11 -10 4
-15 3 -11 -3 3 -6 1 -10 -5 -10 -7 0 -10 6 -7 14 3 7 -1 26 -9 41 -13 24 -12
26 1 15 21 -17 19 -1 -2 24 -18 21 -18 21 5 2 17 -15 22 -16 24 -5 0 8 2 19 2
24 1 6 5 16 10 24 6 9 5 12 -1 8 -6 -4 -14 0 -17 9 -8 22 -8 26 3 20 5 -4 8 0
7 6 -3 25 -17 37 -34 32 -14 -5 -14 -4 -2 4 8 6 18 8 23 5 5 -3 7 0 5 8 -3 8
-12 13 -19 11 -11 -3 -11 -1 -2 9 10 10 16 9 30 -2 16 -13 17 -12 5 2 -14 18
-13 40 3 51 6 5 4 8 -5 8 -13 0 -13 1 0 10 8 5 10 10 5 10 -6 0 -12 12 -13 28
-1 26 -1 26 13 8 8 -11 15 -15 15 -9 0 14 -50 54 -60 48 -3 -2 -7 2 -7 10 0 9
5 11 11 6 21 -15 43 -19 57 -9 11 8 11 9 -3 4 -9 -3 -27 4 -40 15 l-23 20 25
-12 c14 -6 22 -8 18 -4 -4 5 -2 15 5 23 8 10 8 13 1 9 -7 -4 -15 0 -18 9 -10
25 -7 27 12 13 15 -13 16 -12 3 4 -7 9 -10 17 -6 17 4 0 2 6 -5 14 -6 8 -19
12 -28 9 -14 -4 -15 -3 -2 5 8 6 18 8 23 5 5 -3 7 0 5 8 -3 8 -12 13 -19 11
-11 -3 -11 -1 -2 9 10 10 16 9 30 -2 16 -13 17 -12 5 2 -14 18 -13 40 3 51 6
5 4 8 -4 8 -11 0 -9 4 5 15 10 8 15 15 9 14 -23 -3 -27 2 -14 19 13 15 12 16
-3 4 -9 -8 -14 -20 -11 -28 3 -8 0 -14 -7 -14 -6 0 -8 4 -5 10 3 6 1 10 -6 10
-6 0 -1 11 13 23 24 23 25 24 7 35 -11 7 -19 8 -19 3 0 -5 6 -12 13 -15 6 -2
2 -4 -10 -2 -12 1 -26 6 -30 11 -5 4 -3 5 3 2 14 -8 27 20 18 36 -4 7 3 2 15
-10 30 -32 36 -29 12 5 -15 22 -17 29 -6 29 8 0 12 -3 10 -7 -3 -4 5 -16 18
-26 12 -11 17 -12 11 -4 -6 8 -11 26 -11 40 -1 14 1 19 4 12 3 -6 10 -9 16 -5
7 4 7 1 -1 -9 -9 -11 -10 -18 -2 -23 6 -4 9 -1 8 7 -2 7 3 12 10 10 10 -2 10
2 1 20 -6 13 -8 20 -4 16 5 -4 15 -2 24 5 14 11 14 10 2 -6 -12 -15 -12 -17 3
-11 11 4 15 13 10 26 -5 16 -3 18 7 12 9 -5 8 1 -3 18 -17 26 -17 27 2 23 11
-2 26 -7 33 -11 8 -5 7 -2 -2 9 -8 10 -11 20 -7 24 3 3 6 1 6 -5 0 -7 5 -12
11 -12 6 0 8 8 5 18 -5 15 -5 15 8 -1 12 -15 18 -17 33 -7 14 9 15 10 1 6 -9
-3 -19 2 -22 11 -4 11 -2 14 9 10 8 -4 29 0 47 8 l33 14 -32 -2 c-17 -1 -29
-5 -27 -9 3 -4 -2 -5 -11 -2 -14 6 -13 8 5 21 11 8 24 12 28 9 4 -2 14 -1 22
4 9 5 19 5 26 -1 11 -9 12 1 5 29 -1 1 -12 -5 -25 -13 -19 -13 -26 -14 -32 -3
-4 7 -4 10 1 6 10 -10 47 10 40 22 -3 5 0 12 6 16 7 4 9 3 6 -2 -3 -6 4 -16
16 -23 18 -11 20 -11 10 0 -14 14 -18 43 -5 36 4 -3 7 6 7 19 0 13 -4 22 -10
20 -5 -2 -9 -9 -8 -15 2 -6 -2 -11 -7 -11 -12 0 -13 17 -1 24 4 3 11 19 15 36
3 18 10 29 16 25 5 -3 10 -1 10 4 0 15 -13 14 -29 -1 -8 -9 -7 0 3 24 20 47
20 54 1 38 -8 -7 -12 -17 -8 -23 3 -6 1 -7 -6 -3 -7 5 -9 12 -3 19 5 7 12 24
16 39 3 14 9 34 13 45 6 16 5 16 -10 4 -9 -7 -14 -18 -10 -24 3 -6 1 -7 -6 -3
-7 5 -9 12 -3 19 5 7 12 24 16 39 3 14 9 34 13 45 6 16 5 16 -10 4 -9 -7 -14
-18 -10 -24 3 -6 1 -7 -6 -3 -7 5 -9 12 -3 19 5 7 12 24 16 39 3 14 9 34 13
45 6 16 5 16 -10 4 -9 -7 -14 -18 -10 -24 3 -6 1 -7 -6 -3 -7 5 -9 12 -3 19 5
7 12 24 16 39 3 14 9 34 13 45 6 16 5 16 -10 4 -9 -7 -14 -18 -10 -24 3 -6 1
-7 -6 -3 -7 5 -9 12 -3 19 5 7 12 24 16 39 3 14 9 34 13 45 6 16 5 16 -10 4
-9 -7 -14 -18 -10 -24 3 -6 1 -7 -6 -3 -7 5 -9 12 -3 19 5 7 12 24 16 39 3 14
9 34 13 45 6 16 5 16 -10 4 -9 -7 -14 -18 -10 -24 3 -6 1 -7 -6 -3 -7 5 -9 12
-3 19 5 7 12 24 16 39 3 14 9 34 13 45 6 16 5 16 -10 4 -9 -7 -14 -18 -10 -24
3 -6 1 -7 -6 -3 -7 5 -9 12 -3 19 5 7 12 24 16 39 3 14 9 34 13 45 6 16 5 16
-10 4 -9 -7 -14 -18 -10 -24 3 -6 1 -7 -6 -3 -7 5 -9 12 -3 19 5 7 12 24 16
39 3 14 9 34 13 45 6 16 5 16 -10 4 -9 -7 -14 -18 -10 -24 3 -6 1 -7 -6 -3 -7
5 -9 12 -3 19 5 7 12 24 16 39 3 14 9 34 13 45 6 16 5 16 -10 4 -10 -8 -20
-11 -24 -7 -3 3 -1 6 5 6 7 0 12 9 12 20 0 11 3 20 8 20 4 0 8 11 8 25 2 21
-1 24 -13 14 -12 -11 -12 -9 -2 14 7 15 16 24 22 20 6 -3 7 -1 3 6 -4 6 -11 9
-15 7 -4 -3 -13 0 -21 5 -11 7 -12 11 -3 17 8 5 2 13 -19 25 -25 14 -29 15
-18 2 7 -8 8 -15 2 -15 -13 0 -33 25 -26 33 3 3 0 16 -7 29 -13 22 -14 27 -17
56 -1 7 -7 10 -13 7 -6 -4 -5 2 2 13 13 20 29 21 29 1 0 -6 -5 -7 -12 -3 -7 4
-8 3 -4 -4 5 -9 13 -9 27 -2 10 6 19 13 19 16 0 3 -4 3 -9 -1 -17 -10 -49 43
-45 75 2 17 0 29 -4 26 -4 -2 -8 4 -8 14 0 10 6 16 13 13 7 -3 10 -10 7 -17
-3 -6 2 -2 11 9 14 18 14 21 -7 37 l-23 17 23 17 c16 11 21 21 16 33 -4 9 -6
27 -5 40 0 14 -5 28 -11 32 -19 12 -16 42 7 60 16 14 17 19 6 33 -9 10 -10 16
-2 16 6 0 11 5 11 11 0 8 -5 7 -15 -1 -11 -9 -13 -16 -5 -24 14 -14 13 -29 -2
-20 -7 5 -8 3 -3 -6 5 -8 4 -11 -2 -7 -6 4 -9 20 -7 37 3 23 0 29 -9 24 -8 -5
-7 -2 2 9 7 9 9 17 4 17 -5 0 -10 7 -10 15 0 8 3 13 5 10 3 -3 12 1 20 8 13 9
14 9 8 0 -5 -9 -2 -11 8 -7 12 5 10 11 -12 31 -15 14 -19 20 -9 13 17 -13 23
-4 17 25 -1 6 2 6 7 2 4 -5 8 -16 8 -25 0 -10 6 -15 15 -13 22 5 33 4 55 -5
17 -7 18 -6 5 8 -15 15 -38 16 -63 2 -9 -5 -9 -4 0 6 7 7 23 14 36 14 14 1 33
8 43 16 18 14 18 14 2 -6 -16 -19 -16 -20 1 -31 13 -8 22 -8 29 -1 7 7 17 6
32 -2 15 -8 20 -8 16 -1 -4 6 -4 11 -1 11 4 0 16 -5 27 -11 15 -8 19 -8 14 0
-4 6 0 11 9 11 10 0 13 -5 9 -12 -6 -10 -5 -10 8 -1 8 7 18 10 21 6 4 -3 7 -1
7 6 0 7 -7 11 -14 8 -10 -4 -13 -1 -9 8 3 8 9 12 15 9 5 -4 8 32 7 90 -1 55
-6 96 -11 96 -6 0 -8 -7 -5 -15 4 -8 1 -17 -5 -21 -7 -4 -8 -3 -4 4 10 16 -7
15 -24 0 -7 -7 -6 -2 3 12 23 34 21 47 -3 19 -10 -13 -19 -20 -20 -15 0 6 -7
1 -16 -10 -14 -18 -15 -18 -6 0 10 21 -14 60 -31 49 -6 -3 -7 -1 -3 6 6 9 11
9 23 -1 9 -7 19 -12 22 -10 3 1 6 -2 6 -7 0 -5 3 -13 8 -17 4 -4 6 4 5 19 -1
14 -5 25 -8 25 -19 -2 -30 3 -25 12 4 6 -1 7 -12 3 -15 -6 -16 -4 -5 9 10 13
10 17 -3 22 -10 4 -14 2 -9 -5 4 -8 0 -7 -15 0 -11 7 -21 14 -21 17 0 3 5 2
12 -2 7 -4 8 -3 4 4 -5 8 -15 8 -34 2 -24 -9 -25 -9 -9 4 14 11 15 15 4 19 -8
3 -21 0 -28 -6 -11 -10 -11 -9 -1 4 6 9 8 20 4 24 -4 5 -1 5 6 1 6 -4 12 -2
12 3 0 10 -22 16 -43 12 -5 -1 -6 7 -2 18 3 11 0 21 -8 24 -10 4 -13 -2 -11
-19 1 -13 -2 -22 -6 -19 -5 3 -6 13 -3 23 6 15 5 16 -12 2 -18 -14 -18 -14 0
15 l19 30 -20 -18 c-20 -16 -21 -16 -31 6 -9 20 -8 23 11 25 16 1 17 -1 6 -8
-8 -5 -11 -12 -7 -17 11 -10 27 17 20 34 -3 7 1 13 8 13 7 0 9 3 6 6 -4 4 -13
1 -22 -6 -10 -8 -15 -9 -15 -1 0 6 1 12 2 14 1 1 -4 11 -10 23 -10 19 -9 21
13 16 14 -2 25 0 25 7 0 6 -8 8 -17 4 -15 -5 -16 -3 -5 8 21 23 13 33 -10 13
-13 -10 -17 -12 -10 -4 6 8 12 18 12 23 0 4 -6 5 -12 1 -10 -6 -10 -4 -2 7 12
16 17 62 6 55 -4 -3 -8 4 -8 14 0 18 19 21 33 5 4 -4 2 -5 -4 -1 -15 8 -18
-10 -4 -18 11 -7 21 18 13 30 -4 5 -20 20 -36 32 -16 12 -24 22 -18 22 6 0 14
-5 17 -10 10 -16 25 -1 18 18 -5 14 -3 15 8 5 7 -7 18 -13 23 -13 6 0 2 7 -8
15 -13 10 -23 12 -32 5 -8 -8 -13 -6 -18 5 -3 9 -2 13 3 10 5 -3 13 -1 16 5 4
6 1 9 -7 8 -8 -2 -12 4 -10 16 3 13 -1 17 -12 13 -8 -3 -18 -2 -21 3 -4 6 -12
10 -18 10 -7 0 -6 -4 3 -10 12 -7 10 -9 -7 -7 -16 1 -19 5 -12 13 6 8 4 14 -6
18 -9 3 -13 11 -9 17 5 9 11 7 20 -6 8 -10 16 -16 19 -14 3 3 -4 15 -16 27
l-20 22 -1111 0 c-1036 0 -1109 -1 -1097 -17z m6 -68 c0 -8 -4 -12 -9 -9 -4 3
-8 9 -8 15 0 5 4 9 8 9 5 0 9 -7 9 -15z m2270 -12 c0 -7 -4 -13 -9 -13 -5 0
-6 -5 -2 -12 4 -7 3 -8 -4 -4 -6 4 -8 14 -5 23 5 12 3 14 -7 8 -8 -5 -11 -4
-7 2 9 14 34 12 34 -4z m-2358 -119 c4 3 8 -1 8 -8 0 -8 -7 -12 -16 -11 -9 2
-20 4 -25 4 -5 1 -2 8 5 17 8 10 15 12 17 5 2 -6 7 -9 11 -7z m-208 -429 c5 4
6 -1 3 -9 -3 -9 -9 -16 -13 -16 -14 0 -20 12 -13 28 4 10 7 12 10 4 2 -7 8
-10 13 -7z m-50 -202 c13 -16 12 -17 -3 -4 -17 13 -22 21 -14 21 2 0 10 -8 17
-17z m2894 -13 c9 7 15 8 15 2 0 -19 -33 -23 -49 -5 -15 16 -15 16 2 4 14 -11
20 -11 32 -1z m-2662 -18 c15 -16 15 -18 -1 -18 -10 0 -18 8 -18 18 0 10 1 18
2 18 0 0 8 -8 17 -18z m2569 11 c-6 -2 -9 -10 -6 -15 4 -7 2 -8 -5 -4 -13 9
-5 26 12 25 9 0 8 -2 -1 -6z m43 -11 c-3 -3 -11 0 -18 7 -9 10 -8 11 6 5 10
-3 15 -9 12 -12z m-2575 -42 c0 -5 -5 -10 -11 -10 -6 0 -7 -5 -2 -12 13 -22
12 -37 -3 -31 -8 3 -12 14 -10 26 3 12 5 25 5 30 1 11 21 8 21 -3z m2386 -216
c-2 -13 -6 -27 -9 -31 -14 -13 -6 -25 8 -13 9 7 15 8 15 2 0 -14 -28 -23 -36
-11 -3 5 0 16 6 24 7 8 8 15 3 15 -5 0 -9 11 -9 24 0 15 5 22 12 19 7 -2 11
-15 10 -29z m5 -343 c1 -3 3 -16 4 -27 1 -12 5 -26 9 -33 5 -7 1 -9 -8 -5 -9
3 -14 10 -11 14 3 5 1 11 -5 15 -6 4 -8 11 -4 16 3 5 0 17 -7 25 -10 12 -9 13
5 8 9 -3 17 -9 17 -13z m-2425 -68 c-3 -4 -6 -1 -6 5 0 7 -4 12 -10 12 -5 0
-9 -5 -7 -11 1 -6 -5 -14 -13 -16 -13 -4 -13 -3 0 6 8 6 11 11 6 11 -5 0 -3 7
5 16 11 14 13 14 22 -1 5 -9 6 -19 3 -22z m2486 0 c-6 -2 -10 -8 -8 -12 3 -4
-4 -7 -15 -7 -19 0 -19 1 -3 13 10 7 23 13 28 12 6 0 5 -3 -2 -6z m-2512
-1170 c0 -14 2 -15 9 -5 6 11 10 10 19 -1 13 -15 -1 -16 -53 -2 -26 7 -27 9
-10 16 30 12 35 10 35 -8z m255 -223 c3 -5 1 -10 -4 -10 -6 0 -11 5 -11 10 0
6 2 10 4 10 3 0 8 -4 11 -10z m2002 -135 c0 -15 -26 -30 -35 -20 -3 3 0 5 6 5
7 0 12 7 12 15 0 8 4 15 8 15 5 0 9 -7 9 -15z m-7 -105 c-20 -13 -33 -13 -25
0 3 6 14 10 23 10 15 0 15 -2 2 -10z m5 -50 c3 -6 -1 -7 -9 -4 -18 7 -21 14
-7 14 6 0 13 -4 16 -10z m0 -107 c0 -18 -3 -33 -8 -33 -5 0 -7 6 -4 13 2 6 1
21 -4 33 -5 13 -3 21 4 21 7 0 12 -15 12 -34z m-2016 -54 c-12 -8 -6 -13 12
-11 3 1 6 -5 6 -13 0 -8 -5 -11 -11 -7 -6 4 -14 7 -18 7 -8 0 -9 12 -1 32 3 7
10 10 15 7 6 -4 5 -10 -3 -15z m2018 -4 c0 -15 -26 -30 -35 -20 -3 3 0 5 6 5
7 0 12 7 12 15 0 8 4 15 8 15 5 0 9 -7 9 -15z m-2006 -92 c8 -9 9 -14 3 -10
-6 3 -16 -5 -23 -19 -10 -24 -10 -25 10 -19 19 6 20 5 8 -8 -21 -22 -42 -2
-27 26 8 16 8 22 -1 25 -12 4 -5 22 8 22 5 0 15 -8 22 -17z m1999 -13 c-20
-13 -33 -13 -25 0 3 6 14 10 23 10 15 0 15 -2 2 -10z m5 -50 c3 -6 -1 -7 -9
-4 -18 7 -21 14 -7 14 6 0 13 -4 16 -10z m5 -32 c0 -6 -6 -5 -15 2 -8 7 -15
14 -15 16 0 2 7 1 15 -2 8 -4 15 -11 15 -16z m-2003 -172 c0 -8 -9 -14 -19
-13 -18 1 -18 2 -2 14 22 16 21 16 21 -1z m2013 -128 c0 -6 -6 -5 -15 2 -8 7
-15 14 -15 16 0 2 7 1 15 -2 8 -4 15 -11 15 -16z m182 4 c-7 -2 -10 -8 -7 -13
4 -5 -1 -6 -10 -3 -12 5 -13 10 -4 20 6 8 16 11 22 7 8 -5 7 -8 -1 -11z
m-2349 -17 c-3 -9 -8 -14 -10 -11 -3 3 -2 9 2 15 9 16 15 13 8 -4z m2301 0
c-4 -8 -11 -12 -16 -9 -6 4 -5 10 3 15 19 12 19 11 13 -6z m143 -34 c0 -11 -5
-18 -9 -15 -4 3 -5 11 -1 19 7 21 12 19 10 -4z m-2597 -51 c0 -5 -5 -10 -11
-10 -5 0 -7 5 -4 10 3 6 8 10 11 10 2 0 4 -4 4 -10z m2596 -1373 c-1 -11 -8
-22 -16 -24 -13 -4 -13 -3 -1 5 11 8 12 14 3 25 -9 11 -9 14 2 14 7 0 13 -9
12 -20z m1 -223 c-3 -3 -12 -4 -19 -1 -8 3 -5 6 6 6 11 1 17 -2 13 -5z m0
-240 c-3 -3 -12 -4 -19 -1 -8 3 -5 6 6 6 11 1 17 -2 13 -5z m0 -240 c-3 -3
-12 -4 -19 -1 -8 3 -5 6 6 6 11 1 17 -2 13 -5z m0 -240 c-3 -3 -12 -4 -19 -1
-8 3 -5 6 6 6 11 1 17 -2 13 -5z m0 -240 c-3 -3 -12 -4 -19 -1 -8 3 -5 6 6 6
11 1 17 -2 13 -5z m0 -240 c-3 -3 -12 -4 -19 -1 -8 3 -5 6 6 6 11 1 17 -2 13
-5z m0 -240 c-3 -3 -12 -4 -19 -1 -8 3 -5 6 6 6 11 1 17 -2 13 -5z m0 -240
c-3 -3 -12 -4 -19 -1 -8 3 -5 6 6 6 11 1 17 -2 13 -5z m-1341 -194 c0 -12 -4
-16 -9 -11 -5 5 -6 14 -3 20 10 15 12 14 12 -9z m108 12 c3 -5 -1 -9 -9 -9 -8
0 -12 4 -9 9 3 4 7 8 9 8 2 0 6 -4 9 -8z m287 -19 c13 -17 13 -17 -6 -3 -11 8
-22 16 -24 17 -2 2 0 3 6 3 6 0 17 -8 24 -17z m-921 -3 c0 -5 -2 -10 -4 -10
-3 0 -8 5 -11 10 -3 6 -1 10 4 10 6 0 11 -4 11 -10z m700 6 c0 -3 -4 -8 -10
-11 -5 -3 -10 -1 -10 4 0 6 5 11 10 11 6 0 10 -2 10 -4z m140 -6 c0 -5 -2 -10
-4 -10 -3 0 -8 5 -11 10 -3 6 -1 10 4 10 6 0 11 -4 11 -10z m1027 -36 c-3 -3
-12 -4 -19 -1 -8 3 -5 6 6 6 11 1 17 -2 13 -5z m-650 -19 c0 -8 -4 -15 -9 -15
-10 0 -11 14 -1 23 9 10 10 9 10 -8z m-1297 -59 c0 -3 -4 -8 -10 -11 -5 -3
-10 -1 -10 4 0 6 5 11 10 11 6 0 10 -2 10 -4z m3 -42 c-7 -3 -9 -13 -6 -22 4
-14 3 -14 -5 -2 -12 16 -7 30 11 29 9 0 9 -2 0 -5z m1293 -6 c4 -6 3 -8 -3 -5
-6 4 -14 0 -17 -9 -3 -8 -11 -12 -17 -8 -9 5 -6 11 6 21 23 16 22 16 31 1z"/>
<path d="M2670 7575 c0 -8 4 -15 10 -15 5 0 7 7 4 15 -4 8 -8 15 -10 15 -2 0
-4 -7 -4 -15z"/>
<path d="M2613 7498 c-15 -20 -25 -38 -20 -38 3 0 12 11 21 25 17 26 16 35 -1
13z"/>
<path d="M5035 7490 c-3 -5 -1 -10 4 -10 6 0 11 5 11 10 0 6 -2 10 -4 10 -3 0
-8 -4 -11 -10z"/>
<path d="M2594 7398 c-5 -7 -2 -8 6 -3 9 6 10 2 5 -16 -4 -13 -6 -22 -3 -19
27 34 28 38 14 43 -9 4 -18 1 -22 -5z"/>
<path d="M5036 7398 c3 -4 9 -8 15 -8 5 0 9 4 9 8 0 5 -7 9 -15 9 -8 0 -12 -4
-9 -9z"/>
<path d="M2619 7358 c-1 -7 -1 -16 0 -20 2 -12 -13 -9 -29 5 -12 10 -12 9 -1
-5 17 -23 28 -23 41 1 7 13 7 22 0 26 -5 3 -11 0 -11 -7z"/>
<path d="M5033 7285 c0 -7 6 -11 14 -8 7 3 13 6 13 8 0 2 -6 5 -13 8 -8 3 -14
-1 -14 -8z"/>
<path d="M2500 7136 c0 -2 7 -7 16 -10 8 -3 12 -2 9 4 -6 10 -25 14 -25 6z"/>
<path d="M2395 7081 c-3 -5 -2 -12 3 -15 5 -3 9 1 9 9 0 17 -3 19 -12 6z"/>
<path d="M2431 7054 c0 -11 3 -14 6 -6 3 7 2 16 -1 19 -3 4 -6 -2 -5 -13z"/>
<path d="M5251 7054 c0 -11 3 -14 6 -6 3 7 2 16 -1 19 -3 4 -6 -2 -5 -13z"/>
<path d="M2436 6782 c-3 -5 1 -9 9 -9 8 0 12 4 9 9 -3 4 -7 8 -9 8 -2 0 -6 -4
-9 -8z"/>
<path d="M2540 6766 c0 -2 7 -7 16 -10 8 -3 12 -2 9 4 -6 10 -25 14 -25 6z"/>
<path d="M5033 6712 c1 -14 5 -18 11 -12 7 7 6 14 -1 21 -9 9 -12 7 -10 -9z"/>
<path d="M5045 6600 c-3 -5 -1 -10 4 -10 6 0 11 5 11 10 0 6 -2 10 -4 10 -3 0
-8 -4 -11 -10z"/>
<path d="M5060 6566 c0 -2 8 -10 18 -17 15 -13 16 -12 3 4 -13 16 -21 21 -21
13z"/>
<path d="M2605 6537 c-14 -11 -15 -16 -5 -22 9 -6 11 -4 5 5 -6 10 -3 12 13 8
15 -4 19 -2 15 8 -6 17 -5 17 -28 1z"/>
<path d="M5040 6440 c-13 -8 -12 -10 3 -10 9 0 17 5 17 10 0 12 -1 12 -20 0z"/>
<path d="M5041 6356 c-9 -11 -9 -16 0 -22 7 -4 9 -3 5 4 -3 5 0 12 6 15 7 2
10 7 7 11 -3 4 -12 0 -18 -8z"/>
<path d="M5060 6326 c0 -2 8 -10 18 -17 15 -13 16 -12 3 4 -13 16 -21 21 -21
13z"/>
<path d="M5040 6305 c7 -8 17 -15 22 -15 5 0 3 7 -6 15 -8 8 -18 15 -22 15 -3
0 -1 -7 6 -15z"/>
<path d="M2610 6300 c-9 -6 -10 -10 -3 -10 6 0 15 5 18 10 8 12 4 12 -15 0z"/>
<path d="M2606 6268 c4 -6 0 -14 -7 -19 -12 -7 -12 -9 0 -9 10 0 11 -3 3 -13
-8 -9 -6 -16 7 -24 14 -9 18 -8 18 3 0 7 -4 11 -9 8 -14 -9 -9 13 7 26 19 16
15 32 -8 36 -10 1 -14 -2 -11 -8z m15 -21 c-10 -9 -11 -8 -5 6 3 10 9 15 12
12 3 -3 0 -11 -7 -18z"/>
<path d="M5055 6200 c3 -5 8 -10 11 -10 2 0 4 5 4 10 0 6 -5 10 -11 10 -5 0
-7 -4 -4 -10z"/>
<path d="M2590 6182 c0 -5 7 -9 15 -9 8 0 12 4 9 9 -3 4 -9 8 -15 8 -5 0 -9
-4 -9 -8z"/>
<path d="M2507 6059 c7 -7 15 -10 18 -7 3 3 -2 9 -12 12 -14 6 -15 5 -6 -5z"/>
<path d="M2514 5752 c3 -5 0 -13 -6 -15 -9 -4 -10 -6 -1 -6 17 -1 25 16 12 25
-7 4 -9 3 -5 -4z"/>
<path d="M2508 5693 c7 -3 16 -2 19 1 4 3 -2 6 -13 5 -11 0 -14 -3 -6 -6z"/>
<path d="M2514 5272 c3 -5 0 -13 -6 -15 -9 -4 -10 -6 -1 -6 17 -1 25 16 12 25
-7 4 -9 3 -5 -4z"/>
<path d="M2508 5213 c7 -3 16 -2 19 1 4 3 -2 6 -13 5 -11 0 -14 -3 -6 -6z"/>
<path d="M5145 5069 c-4 -6 -5 -12 -2 -15 2 -3 7 2 10 11 7 17 1 20 -8 4z"/>
<path d="M2504 5019 c0 -13 3 -15 13 -7 7 6 13 12 13 13 0 2 -6 5 -13 8 -7 3
-13 -3 -13 -14z"/>
<path d="M2636 4854 c-4 -9 -4 -19 -1 -22 3 -3 5 0 5 6 0 7 5 12 11 12 5 0 7
-6 3 -12 -5 -9 -2 -9 9 1 9 7 17 16 17 19 0 3 -3 2 -7 -1 -3 -4 -12 -2 -18 3
-9 8 -15 6 -19 -6z"/>
<path d="M4860 4511 c0 -10 19 -25 25 -20 1 2 -3 10 -11 17 -8 7 -14 8 -14 3z"/>
<path d="M4860 4191 c0 -10 19 -25 25 -20 1 2 -3 10 -11 17 -8 7 -14 8 -14 3z"/>
<path d="M4870 4066 c0 -2 7 -7 16 -10 8 -3 12 -2 9 4 -6 10 -25 14 -25 6z"/>
<path d="M4850 4035 c-6 -8 -10 -20 -7 -27 3 -8 6 -6 6 5 1 10 6 15 12 12 6
-4 8 -14 4 -24 -5 -12 -4 -13 6 -4 9 9 9 16 1 26 -7 8 -9 17 -5 20 3 4 4 7 1
7 -3 0 -11 -7 -18 -15z"/>
<path d="M2794 3965 c0 -19 3 -22 13 -13 10 8 10 14 2 24 -15 18 -15 18 -15
-11z"/>
<path d="M4844 3929 c-3 -6 -2 -15 4 -21 6 -6 12 -6 17 3 6 8 4 10 -5 4 -10
-6 -12 -4 -7 8 7 19 2 23 -9 6z"/>
<path d="M2773 3845 c0 -8 4 -12 9 -9 5 3 6 10 3 15 -9 13 -12 11 -12 -6z"/>
<path d="M4873 3832 c2 -12 6 -24 10 -28 3 -4 4 4 2 16 -2 12 -7 25 -10 28 -3
3 -4 -4 -2 -16z"/>
<path d="M2566 3795 c-3 -8 -12 -12 -21 -9 -8 3 -15 4 -15 1 0 -3 6 -7 13 -10
16 -6 52 19 39 27 -6 3 -12 -1 -16 -9z"/>
<path d="M2606 3794 c-8 -22 -4 -25 11 -9 7 8 9 16 4 19 -5 3 -12 -1 -15 -10z"/>
<path d="M2715 3790 c3 -5 8 -10 11 -10 2 0 4 5 4 10 0 6 -5 10 -11 10 -5 0
-7 -4 -4 -10z"/>
<path d="M2501 3704 c0 -11 3 -14 6 -6 3 7 2 16 -1 19 -3 4 -6 -2 -5 -13z"/>
<path d="M2514 3352 c3 -5 0 -13 -6 -15 -9 -4 -10 -6 -1 -6 17 -1 25 16 12 25
-7 4 -9 3 -5 -4z"/>
<path d="M2508 3293 c7 -3 16 -2 19 1 4 3 -2 6 -13 5 -11 0 -14 -3 -6 -6z"/>
<path d="M2514 2872 c3 -5 0 -13 -6 -15 -9 -4 -10 -6 -1 -6 17 -1 25 16 12 25
-7 4 -9 3 -5 -4z"/>
<path d="M2508 2813 c7 -3 16 -2 19 1 4 3 -2 6 -13 5 -11 0 -14 -3 -6 -6z"/>
<path d="M2514 2632 c3 -5 0 -13 -6 -15 -9 -4 -10 -6 -1 -6 17 -1 25 16 12 25
-7 4 -9 3 -5 -4z"/>
<path d="M2508 2573 c7 -3 16 -2 19 1 4 3 -2 6 -13 5 -11 0 -14 -3 -6 -6z"/>
<path d="M5140 2539 c0 -5 5 -7 10 -4 6 3 10 8 10 11 0 2 -4 4 -10 4 -5 0 -10
-5 -10 -11z"/>
</g>
</svg>
